# xmcd CD database file generated by Grip 2.98.6
# 
# Track frame offsets:
#       150
#       16132
#       30016
#       44911
#       66723
#       84295
#       104222
#       123166
#       136881
#       157680
#       176657
#       191324
#       208459
#       220873
# 
# Disc length: 3178 secs
# 
# Revision: 0
# Processed by: cddbd v1.4PL0 Copyright (c) Steve Scherf et al.
# Submitted via: Grip 2.98.6
# 
DISCID=c20c680e
DTITLE=Joe Cocker - Organic
DYEAR=1996
DGENRE=Blues
TTITLE0=Into the Mustic
TTITLE1=Anybody Seen My Girl
TTITLE2=Delta Lady
TTITLE3=Heart Full of Rain
TTITLE4=Don't Let Me Be Misunderstood
TTITLE5=Many Rivers to Cross
TTITLE6=High Lonesome Blue
TTITLE7=Sail Away
TTITLE8=You and I
TTITLE9=Darling Be Home Soon
TTITLE10=Dignity
TTITLE11=You Can Leave Your Hat On
TTITLE12=You Are So Beautiful
TTITLE13=Can't Find My Way Home
EXTD=
EXTT0=
EXTT1=
EXTT2=
EXTT3=
EXTT4=
EXTT5=
EXTT6=
EXTT7=
EXTT8=
EXTT9=
EXTT10=
EXTT11=
EXTT12=
EXTT13=
PLAYORDER=
